# xmcd
#
# Track frame offsets:
#	150
#	25072
#	48267
#	69330
#	96030
#	118995
#	137730
#	157282
#	175582
#	197540
#	219120
#	235485
#	256132
#
# Disc length: 3644 seconds
#
# Revision: 1
# Processed by: cddbd v1.5.2PL0 Copyright (c) Steve Scherf et al.
# Submitted via: audiograbber 1.83.01
#
DISCID=ae0e3a0d
DTITLE=The Breakers - Milan
DYEAR=1994
DGENRE=Rock
TTITLE0=How Many Times?
TTITLE1=You're Gonna Miss Me (When I'm Gone)
TTITLE2=Two Hearts
TTITLE3=Time For Leaving
TTITLE4=What Does It Take?
TTITLE5=Young and Ready
TTITLE6=How Many Rivers?
TTITLE7=Make It Last All Night
TTITLE8=Not Guilty
TTITLE9=Don't You Want My Love?
TTITLE10=Reconsider Baby
TTITLE11=No Sympathy
TTITLE12=Crossroads (Live)
EXTD=
EXTT0=
EXTT1=
EXTT2=
EXTT3=
EXTT4=
EXTT5=
EXTT6=
EXTT7=
EXTT8=
EXTT9=
EXTT10=
EXTT11=
EXTT12=
PLAYORDER=
